<svg xmlns="http://www.w3.org/2000/svg" width="70" height="76" fill="none" viewBox="0 0 70 76"><path fill="#777" d="M67.821 49.638v5.634H65.31V41.528l-2.485 2.494h-.028v11.25l-3.15 3.14v2.41l-8.128-2.747v-3.028l-6.253-3.684V39.774l1.453-5.428V22.834l1.725-6.487V1.497L42.49.437l-5.953 1.06v14.85l3.178 26.419V57.69l-4.716-4.06-4.715 4.06V42.766l3.187-26.42V1.497L27.51.439l-5.954 1.059v14.85l1.735 6.487v11.513l1.453 5.437v11.578l-6.272 3.685v3.028l-8.119 2.747v-2.41l-3.15-3.14v-11.25h-.018L4.69 41.528v13.744H2.177v-5.634L.06 47.509V71.322l2.118 2.119v-4.135H5.412l20.747 3.197v-3.197h3.347v2.832l5.493 3.3 5.494-3.3v-2.832h3.347v3.197l20.747-3.197h3.234v4.135l2.119-2.12V47.51l-2.119 2.129z"/></svg>