<svg xmlns="http://www.w3.org/2000/svg" width="97" height="75" fill="none" viewBox="0 0 97 75"><path fill="#777" d="M28.254 44.727l-1.344-6.013 8.845-24.125a7.748 7.748 0 0 0 3.136 1.136L28.254 44.727zm26.697-8.001a5.633 5.633 0 0 1 2.869-1.686L45.096 13.718a7.507 7.507 0 0 1-2.87 1.695l12.725 21.313zm-1.496 3.759L31.19 46.923l6.757 1.496 16.432-4.753c-.59-.9-.934-1.96-.934-3.115.01-.019.01-.047.01-.066zm6.405-5.568a5.74 5.74 0 0 1 3.05 1.345l5.356-12.044a6.583 6.583 0 0 1-3.05-1.335L59.86 34.917zm13.687-12.081a6.657 6.657 0 0 1-3.04 1.373L86.69 59.42a5.716 5.716 0 0 1 3.031-1.373L73.547 22.836z" opacity=".75"/><path fill="#777" d="M38.892 15.725a7.611 7.611 0 0 1-3.136-1.136c-2.106-1.345-3.507-3.693-3.507-6.372 0-4.185 3.412-7.575 7.625-7.575s7.625 3.39 7.625 7.575a7.51 7.51 0 0 1-2.402 5.5 7.507 7.507 0 0 1-2.869 1.696 7.477 7.477 0 0 1-2.354.378 8.4 8.4 0 0 1-.982-.066zm37.134 1.96c0-3.664-2.993-6.628-6.672-6.628-3.68 0-6.672 2.964-6.672 6.628a6.59 6.59 0 0 0 2.535 5.198 6.626 6.626 0 0 0 3.05 1.335 6.82 6.82 0 0 0 1.087.095 5.9 5.9 0 0 0 1.163-.114 6.746 6.746 0 0 0 3.04-1.373 6.588 6.588 0 0 0 2.469-5.14zM59.175 34.87c-.467 0-.915.066-1.354.17a5.7 5.7 0 0 0-2.869 1.686 5.62 5.62 0 0 0-1.496 3.759v.066c0 1.146.343 2.216.934 3.115a5.727 5.727 0 0 0 4.785 2.566c3.164 0 5.718-2.547 5.718-5.681a5.667 5.667 0 0 0-1.982-4.299 5.74 5.74 0 0 0-3.05-1.344c-.229-.019-.458-.038-.686-.038zm31.31 23.112c-.258 0-.505.02-.753.057a5.715 5.715 0 0 0-3.031 1.373 5.653 5.653 0 0 0-1.935 4.251c0 3.144 2.564 5.681 5.719 5.681 3.154 0 5.718-2.537 5.718-5.68 0-3.135-2.554-5.682-5.718-5.682zM28.617 46.355l-.362-1.628-1.344-6.013-2.602-11.636-4.317 19.277-19.406 4.29 19.396 4.279L24.3 74.2l4.308-19.268 19.405-4.289L37.94 48.42l-6.758-1.496-2.564-.568z"/></svg>