<svg xmlns="http://www.w3.org/2000/svg" width="56" height="66" fill="none" viewBox="0 0 56 66"><path fill="#777" d="M45.537 35.204c.365-.682.21-1.617.098-1.983-.098-.366-.548-.422-.816-.506-.26-.092-.604-.366-.604-.366s.45-3.628.865-5.013c.422-1.392 1.286-4.106 1.286-4.845 0-.738-.26-2.158-.527-2.833.513-1.315.619-4.346.619-4.346s.028-4.247-3.945-8.873C37.781.659 28.338.912 28.338.912S18.902.66 14.163 6.44c-3.972 4.626-3.944 8.873-3.944 8.873s.098 3.03.604 4.339c-.267.675-.527 2.095-.527 2.833s.872 3.452 1.294 4.845c.422 1.392.872 5.013.872 5.013s-.345.281-.605.366c-.26.084-.71.14-.816.506-.105.366-.267 1.308.106 1.983s.689.963.689.963.394 2.039 1.814 2.18c1.42.147 1.891-.907 2.187-1.189.288-.28 1.786-1.104 2.257-1.104.47 0 1.343.45 1.343 1.217 0 .766-.661 1.497-.837 1.666-.19.169-1.027 1.477-1.027 2.215 0 .253.183.478.183.478s-.049 1.364.415 2.721c.422.197.921.394 1.006.394v.232s.787.626 1.891.767v.168s.787.598 2.074.626v.14s1.42.655 2.496.591v.092s.682.654 2.707.647c2.025 0 2.707-.647 2.707-.647v-.092c1.083.056 2.496-.59 2.496-.59v-.141c1.287-.028 2.075-.626 2.075-.626v-.169a4.193 4.193 0 0 0 1.891-.766v-.225c.077 0 .577-.197 1.005-.4.472-1.358.415-2.722.415-2.722s.19-.225.19-.478c0-.738-.843-2.039-1.026-2.208-.183-.175-.837-.907-.837-1.673 0-.767.865-1.217 1.343-1.217.471 0 1.976.816 2.257 1.104.288.282.766 1.336 2.18 1.189 1.427-.134 1.82-2.18 1.82-2.18s.303-.281.676-.956zm-17.199-6.518c.352 0 .795.056.907 1.589.106 1.533.106 2.123.76 2.861.654.739 1.476 1.899 1.28 2.553-.198.654-.823 1.448-1.02 1.47-.204.028-.88.485-1.927-.71-1.047 1.195-1.73.738-1.926.71-.197-.029-.823-.816-1.02-1.47-.197-.654.626-1.814 1.273-2.553.654-.738.654-1.328.766-2.861.12-1.533.556-1.59.907-1.59zm13.05-4.957c.253 1.293.246 1.891.464 2.932-.126 1.406-.57 2.207-1.216 2.812-.774.795-1.87 1.189-3.277.767-1.82-.57-3.536-1.252-5.083-2.243-1.505-1.23-1.821-3.77.422-4.346 1.589-.633 3.136-1.237 4.78-1.779 2.138-.513 3.615.697 3.91 1.857zm-22.19-1.857c1.645.549 3.185 1.154 4.78 1.78 2.244.576 1.934 3.114.423 4.345-1.547.991-3.256 1.673-5.084 2.243-1.399.422-2.496.035-3.27-.767-.646-.604-1.09-1.406-1.216-2.812.218-1.04.211-1.639.464-2.932.296-1.16 1.765-2.37 3.903-1.857z"/><path fill="#777" d="M55.156 59.405c.45-.485 1.026-1.174.583-1.85-.801-1.223-3.15-.73-4.043-.288-.597.289-1.673.556-2.376.331l-13.711-4.331 13.71-4.332c.697-.218 1.78.05 2.37.338.9.436 3.249.928 4.05-.295.443-.675-.133-1.364-.583-1.85-.549-.59-1.062-1.09-1.33-1.912-.26-.83-.126-1.526-.013-2.327.091-.661.168-1.547-.584-1.85-1.357-.541-2.995 1.21-3.48 2.082-.324.583-1.055 1.42-1.751 1.638l-19.666 6.216-19.667-6.216c-.696-.218-1.427-1.055-1.75-1.638-.479-.872-2.124-2.623-3.481-2.082-.746.303-.675 1.189-.584 1.85.113.801.246 1.497-.014 2.327-.26.823-.78 1.329-1.329 1.913-.45.485-1.026 1.174-.59 1.849.801 1.223 3.15.73 4.05.295.597-.295 1.673-.556 2.37-.338l13.71 4.332-13.71 4.331c-.697.218-1.78-.042-2.37-.33-.9-.443-3.249-.929-4.043.288-.443.682.133 1.364.583 1.849.549.59 1.062 1.09 1.322 1.913.26.822.134 1.525.014 2.327-.091.654-.162 1.547.584 1.842 1.357.549 2.995-1.21 3.48-2.081.324-.584 1.055-1.413 1.751-1.631l19.666-6.216 19.667 6.216c.696.218 1.427 1.047 1.75 1.63.486.88 2.124 2.63 3.481 2.082.745-.295.675-1.195.584-1.842-.113-.802-.246-1.505.014-2.328.274-.822.787-1.321 1.336-1.912z"/></svg>