<svg xmlns="http://www.w3.org/2000/svg" width="128" height="128" fill="none" viewBox="0 0 128 128"><g filter="url(#filter0_i)"><path fill="#29353A" d="M63 .577a2 2 0 012 0l53.426 30.846c.618.357 1 1.017 1 1.732v61.69c0 .715-.382 1.375-1 1.732L65 127.423a2.001 2.001 0 01-2 0L9.574 96.577a2 2 0 01-1-1.732v-61.69a2 2 0 011-1.732L63 .577z"/></g><path fill="silver" d="M81.14 70.24v3.005H79.8v-7.33l-1.325 1.33h-.015v6l-1.68 1.675v1.285l-4.335-1.465v-1.615L69.11 71.16v-6.18l.775-2.895v-6.14l.92-3.46v-7.92L67.63 44l-3.175.565v7.92l1.695 14.09v7.96l-2.515-2.165-2.515 2.165v-7.96l1.7-14.09v-7.92L59.64 44l-3.175.565v7.92l.925 3.46v6.14l.775 2.9v6.175l-3.345 1.965v1.615l-4.33 1.465V74.92l-1.68-1.675v-6h-.01l-1.33-1.33v7.33h-1.34V70.24L45 69.105v12.7l1.13 1.13V80.73h1.725l11.065 1.705V80.73h1.785v1.51l2.93 1.76 2.93-1.76v-1.51h1.785v1.705l11.065-1.705h1.725v2.205l1.13-1.13v-12.7l-1.13 1.135z"/><defs><filter id="filter0_i" width="110.851" height="127.381" x="8.574" y=".309" color-interpolation-filters="sRGB" filterUnits="userSpaceOnUse"><feFlood flood-opacity="0" result="BackgroundImageFix"/><feBlend in="SourceGraphic" in2="BackgroundImageFix" result="shape"/><feColorMatrix in="SourceAlpha" result="hardAlpha" values="0 0 0 0 0 0 0 0 0 0 0 0 0 0 0 0 0 0 127 0"/><feOffset dy="1"/><feComposite in2="hardAlpha" k2="-1" k3="1" operator="arithmetic"/><feColorMatrix values="0 0 0 0 1 0 0 0 0 1 0 0 0 0 1 0 0 0 0.1 0"/><feBlend in2="shape" result="effect1_innerShadow"/></filter></defs></svg>