<svg xmlns="http://www.w3.org/2000/svg" width="128" height="128" fill="none" viewBox="0 0 128 128"><g filter="url(#filter0_i)"><path fill="#29353A" d="M63 .577a2 2 0 012 0l53.426 30.846c.618.357 1 1.017 1 1.732v61.69c0 .715-.382 1.375-1 1.732L65 127.423a2.001 2.001 0 01-2 0L9.574 96.577a2 2 0 01-1-1.732v-61.69a2 2 0 011-1.732L63 .577z"/></g><path fill="silver" d="M79.63 67.34l1.79-.525V65.5l-1.815-.535a5.865 5.865 0 00-.365-1.095l1.165-1.51-.775-1.065-1.82.645a5.533 5.533 0 00-.905-.65l.055-1.935-1.25-.405-1.095 1.6a5.024 5.024 0 00-1.115 0l-1.095-1.6-1.25.405.055 1.935c-.325.19-.625.405-.905.65l-1.82-.645-.775 1.065 1.165 1.51c-.155.345-.28.715-.365 1.095l-1.825.535v1.315l1.79.525c.08.4.205.78.36 1.145l-1.13 1.47.775 1.065 1.735-.615c.3.275.63.52.99.73l-.05 1.83 1.25.405 1.03-1.5c.205.02.41.035.625.035.215 0 .42-.015.625-.035l1.03 1.5 1.25-.405-.05-1.83c.355-.205.685-.45.99-.73l1.735.615.775-1.065-1.13-1.47c.14-.365.26-.745.345-1.145zm-5.58 2.905a4.033 4.033 0 01-4.035-4.035 4.033 4.033 0 014.035-4.035 4.033 4.033 0 014.035 4.035 4.033 4.033 0 01-4.035 4.035zm-8.605-6.735l-.38-3.08c.47-.28.91-.6 1.315-.955l2.815 1.305.96-1.19-1.865-2.475c.265-.47.485-.97.66-1.485l3.09-.275.235-1.51-2.85-1.21a9 9 0 00-.045-.815 10.39 10.39 0 00-.125-.805l2.535-1.78-.55-1.43-3.08.38c-.28-.47-.6-.91-.955-1.315l1.295-2.82-1.19-.96-2.475 1.865a8.776 8.776 0 00-1.485-.66l-.275-3.09-1.51-.235-1.21 2.85a9 9 0 00-.815.045c-.275.03-.54.075-.805.125l-1.78-2.535-1.43.55.38 3.075c-.47.28-.91.6-1.315.955l-2.815-1.305-.96 1.19 1.865 2.475c-.265.47-.485.97-.66 1.49l-3.09.275-.235 1.51 2.85 1.21a9 9 0 00.045.815c.03.275.075.54.125.805l-2.535 1.78.55 1.43 3.08-.38c.28.47.6.91.955 1.315l-1.305 2.81 1.19.96 2.475-1.865c.47.265.97.485 1.49.66l.275 3.09 1.51.235 1.21-2.85a9 9 0 00.815-.045c.275-.03.54-.075.805-.125l1.78 2.535 1.435-.54zm-10.98-10.005a6.221 6.221 0 0112.37-1.32 6.221 6.221 0 01-12.37 1.32z"/><path fill="silver" d="M74.665 52.765c0-2.78-.805-5.375-2.185-7.56 1.235.46 2.37 1.06 3.315 1.845C80.31 50.79 80.7 55.025 80.7 57.6c0 .72-.015 1.485-.085 2.295a9.054 9.054 0 00-6.56-2.815c-.02 0-.035.005-.055.005.43-1.37.665-2.815.665-4.32zm-9.69 13.45c-1.41.47-2.92.73-4.49.73-4.005 0-7.62-1.665-10.2-4.335-.295.535-.565.93-.695 1.12-.39.58-1.235 1.255-1.235 2.345 0 1.09.87 1.175 1.63 1.42.76.245.59 1.285.615 1.74.025.455-.345.54-.355 1.215-.01.675 1.115 1.09 1.115 1.09s-.37.145-.525.7c-.155.555 0 .885.54 1.19.54.305.775.565.775 1.975 0 1.41.305 2.045 1.715 2.895 1.41.845 3.45-.215 4.49-.27 2.965-.16 3.12 5.835 3 8.115a22.39 22.39 0 0016.445-4.62c-1.045-1.65-1.815-3.345-2.185-5.62-.045-.28-.08-.54-.115-.795-.475.075-.96.125-1.455.125-4.99 0-9.04-4.03-9.07-9.02z" opacity=".75"/><defs><filter id="filter0_i" width="110.851" height="127.381" x="8.574" y=".309" color-interpolation-filters="sRGB" filterUnits="userSpaceOnUse"><feFlood flood-opacity="0" result="BackgroundImageFix"/><feBlend in="SourceGraphic" in2="BackgroundImageFix" result="shape"/><feColorMatrix in="SourceAlpha" result="hardAlpha" values="0 0 0 0 0 0 0 0 0 0 0 0 0 0 0 0 0 0 127 0"/><feOffset dy="1"/><feComposite in2="hardAlpha" k2="-1" k3="1" operator="arithmetic"/><feColorMatrix values="0 0 0 0 1 0 0 0 0 1 0 0 0 0 1 0 0 0 0.1 0"/><feBlend in2="shape" result="effect1_innerShadow"/></filter></defs></svg>